<?xml version="1.0" encoding="UTF-8" standalone="no"?>
<!-- Generator: Adobe Illustrator 19.0.0, SVG Export Plug-In . SVG Version: 6.00 Build 0)  -->

<svg
   xmlns:dc="http://purl.org/dc/elements/1.1/"
   xmlns:cc="http://creativecommons.org/ns#"
   xmlns:rdf="http://www.w3.org/1999/02/22-rdf-syntax-ns#"
   xmlns:svg="http://www.w3.org/2000/svg"
   xmlns="http://www.w3.org/2000/svg"
   xmlns:sodipodi="http://sodipodi.sourceforge.net/DTD/sodipodi-0.dtd"
   xmlns:inkscape="http://www.inkscape.org/namespaces/inkscape"
   version="1.1"
   id="Capa_1"
   x="0px"
   y="0px"
   width="12.5"
   height="13.5"
   viewBox="0 0 25 27"
   xml:space="preserve"
   inkscape:version="0.91 r13725"
   sodipodi:docname="default-offline.svg"><metadata
     id="metadata43"><rdf:RDF><cc:Work
         rdf:about=""><dc:format>image/svg+xml</dc:format><dc:type
           rdf:resource="http://purl.org/dc/dcmitype/StillImage" /><dc:title></dc:title></cc:Work></rdf:RDF></metadata><defs
     id="defs41" /><sodipodi:namedview
     pagecolor="#ffffff"
     bordercolor="#666666"
     borderopacity="1"
     objecttolerance="10"
     gridtolerance="10"
     guidetolerance="10"
     inkscape:pageopacity="0"
     inkscape:pageshadow="2"
     inkscape:window-width="1920"
     inkscape:window-height="1023"
     id="namedview39"
     showgrid="false"
     fit-margin-top="0.5"
     fit-margin-bottom="0.5"
     fit-margin-left="0"
     fit-margin-right="0"
     inkscape:zoom="30"
     inkscape:cx="-4.7828781"
     inkscape:cy="7.9703495"
     inkscape:window-x="0"
     inkscape:window-y="29"
     inkscape:window-maximized="1"
     inkscape:current-layer="Capa_1" /><circle
     style="fill:#d73333;fill-opacity:0.90566041"
     cx="12.5"
     cy="13.5"
     r="12.5"
     id="circle3" /><polyline
     style="fill:none;stroke:#ffffff;stroke-width:4;stroke-linecap:round;stroke-miterlimit:10"
     points="16,34 25,25 34,16   "
     id="polyline5"
     transform="matrix(0.5,0,0,0.5,0,1)" /><polyline
     style="fill:none;stroke:#ffffff;stroke-width:4;stroke-linecap:round;stroke-miterlimit:10"
     points="16,16 25,25 34,34   "
     id="polyline7"
     transform="matrix(0.5,0,0,0.5,0,1)" /><g
     id="g9"
     transform="matrix(0.5,0,0,0.5,0,1)" /><g
     id="g11"
     transform="matrix(0.5,0,0,0.5,0,1)" /><g
     id="g13"
     transform="matrix(0.5,0,0,0.5,0,1)" /><g
     id="g15"
     transform="matrix(0.5,0,0,0.5,0,1)" /><g
     id="g17"
     transform="matrix(0.5,0,0,0.5,0,1)" /><g
     id="g19"
     transform="matrix(0.5,0,0,0.5,0,1)" /><g
     id="g21"
     transform="matrix(0.5,0,0,0.5,0,1)" /><g
     id="g23"
     transform="matrix(0.5,0,0,0.5,0,1)" /><g
     id="g25"
     transform="matrix(0.5,0,0,0.5,0,1)" /><g
     id="g27"
     transform="matrix(0.5,0,0,0.5,0,1)" /><g
     id="g29"
     transform="matrix(0.5,0,0,0.5,0,1)" /><g
     id="g31"
     transform="matrix(0.5,0,0,0.5,0,1)" /><g
     id="g33"
     transform="matrix(0.5,0,0,0.5,0,1)" /><g
     id="g35"
     transform="matrix(0.5,0,0,0.5,0,1)" /><g
     id="g37"
     transform="matrix(0.5,0,0,0.5,0,1)" /></svg>